HIERARCHY
ROOT Hips
{
	OFFSET 12.908308 96.361832 35.489651
	CHANNELS 6 Xposition Yposition Zposition Xrotation Yrotation Zrotation
	JOINT Chest
	{
		OFFSET -2.360367 13.434914 -0.293118
		CHANNELS 3 Xrotation Yrotation Zrotation
		JOINT Chest2
		{
			OFFSET -13.167846 16.849434 -1.330757
			CHANNELS 3 Xrotation Yrotation Zrotation
			JOINT Chest3
			{
				OFFSET -6.469564 13.139709 -2.883144
				CHANNELS 3 Xrotation Yrotation Zrotation
				JOINT Neck
				{
					OFFSET -6.460925 15.788559 -2.755671
					CHANNELS 3 Xrotation Yrotation Zrotation
					JOINT Head
					{
						OFFSET -1.941378 9.929062 -2.733580
						CHANNELS 3 Xrotation Yrotation Zrotation
						End Site
						{
							OFFSET -1.947742 9.908340 -2.803360
						}
					}
				}
				JOINT LeftCollar
				{
					OFFSET -0.993999 14.166473 0.356617
					CHANNELS 3 Xrotation Yrotation Zrotation
					JOINT LeftUpArm
					{
						OFFSET 15.132601 -0.442123 -8.905527
						CHANNELS 3 Xrotation Yrotation Zrotation
						JOINT LeftLowArm
						{
							OFFSET 29.649796 -16.042816 -1.801737
							CHANNELS 3 Xrotation Yrotation Zrotation
							JOINT LeftHand
							{
								OFFSET 26.659241 -2.022888 13.643311
								CHANNELS 3 Xrotation Yrotation Zrotation
								End Site
								{
									OFFSET 5.826538 -0.442139 2.981812
								}
							}
						}
					}
				}
				JOINT RightCollar
				{
					OFFSET -8.798209 11.100433 1.086517
					CHANNELS 3 Xrotation Yrotation Zrotation
					JOINT RightUpArm
					{
						OFFSET -15.153708 -5.128067 -7.250134
						CHANNELS 3 Xrotation Yrotation Zrotation
						JOINT RightLowArm
						{
							OFFSET -33.224224 5.982239 0.313267
							CHANNELS 3 Xrotation Yrotation Zrotation
							JOINT RightHand
							{
								OFFSET -28.141731 10.416306 -0.705805
								CHANNELS 3 Xrotation Yrotation Zrotation
								End Site
								{
									OFFSET -6.150650 2.276611 -0.154257
								}
							}
						}
					}
				}
			}
		}
	}
	JOINT LeftUpLeg
	{
		OFFSET 9.536142 1.730743 2.546696
		CHANNELS 3 Xrotation Yrotation Zrotation
		JOINT LeftLowLeg
		{
			OFFSET -4.707624 -43.072136 19.147247
			CHANNELS 3 Xrotation Yrotation Zrotation
			JOINT LeftFoot
			{
				OFFSET -11.274678 -38.546806 -19.687347
				CHANNELS 3 Xrotation Yrotation Zrotation
				JOINT LeftToe
				{
					OFFSET 4.223534 -16.675749 16.237007
					CHANNELS 3 Xrotation Yrotation Zrotation
					End Site
					{
						OFFSET 7.207026 -2.281798 22.414528
					}
				}
			}
		}
	}
	JOINT RightUpLeg
	{
		OFFSET -9.536111 -1.730942 -2.546692
		CHANNELS 3 Xrotation Yrotation Zrotation
		JOINT RightLowLeg
		{
			OFFSET -41.016113 -22.075638 8.622925
			CHANNELS 3 Xrotation Yrotation Zrotation
			JOINT RightFoot
			{
				OFFSET 23.662182 -30.456944 -22.650740
				CHANNELS 3 Xrotation Yrotation Zrotation
				JOINT RightToe
				{
					OFFSET -14.221193 -18.573299 -3.513842
					CHANNELS 3 Xrotation Yrotation Zrotation
					End Site
					{
						OFFSET -22.178030 -7.090685 4.172915
					}
				}
			}
		}
	}
}
MOTION
Frames: 8
Frame Time: 0.033333
31.506590 96.676918 52.815056 16.787247 -12.656508 -14.395839 19.175558 2.206038 -32.399709 1.410306 -2.319500 6.149332 -0.852508 -4.747578 8.056334 6.226041 -8.177801 17.819183 -0.000002 0.000002 0.000001 5.177893 -2.947444 7.282272 3.735718 -4.233323 26.275582 -7.791837 24.938788 31.418570 0.000002 0.000002 -0.000001 -2.558137 11.139620 25.003325 -7.920311 13.692560 47.901384 11.926323 5.793944 -77.495176 -0.000001 0.000000 -0.000001 -29.054590 -2.095333 4.807546 -18.675475 -4.848305 43.848496 -35.818168 -41.669331 -56.221063 0.000001 0.000001 0.000001 -7.618756 8.162396 77.669612 -4.955937 15.520268 -59.619143 -17.775806 13.662923 16.751211 0.000004 0.000003 0.000002 
31.181847 96.129318 53.002758 16.580069 -13.644307 -14.009077 18.924362 2.141066 -32.717993 1.537220 -2.172604 6.033694 -1.267921 -4.613606 8.008007 6.806601 -7.942035 17.951508 -0.000001 0.000002 0.000002 5.068949 -2.909027 7.421427 3.720029 -3.729520 27.615029 -7.232671 25.655343 29.489734 0.000003 -0.000001 0.000003 -2.599788 10.719494 24.829852 -7.858611 13.270807 46.558387 12.845837 7.061471 -75.753164 0.000003 0.000002 -0.000001 -28.320503 -2.017177 5.296915 -18.359198 -4.973593 44.302554 -39.422100 -41.373912 -59.203991 0.000002 0.000002 0.000001 -7.129218 8.206743 77.905206 -4.206667 15.268852 -60.436499 -17.641346 13.467801 17.750135 0.000001 0.000002 0.000003 
30.785000 95.665245 53.196880 16.826506 -14.487096 -13.269494 18.358140 2.042516 -32.916396 1.050591 -2.526751 5.958847 -0.768137 -4.119903 7.738839 7.386963 -7.954451 18.565875 0.000004 -0.000001 0.000000 5.327588 -3.350936 7.780949 3.985004 -3.090161 28.881916 -6.505943 26.862571 27.609488 0.000000 0.000000 0.000000 -2.561975 10.361066 24.268719 -7.312905 12.512438 45.381160 14.009305 8.354494 -74.400889 0.000003 0.000002 -0.000005 -27.697064 -1.964301 5.505458 -18.082668 -5.152223 45.045951 -41.938714 -41.238906 -61.470528 -0.000000 -0.000003 -0.000002 -6.100873 8.458388 78.395033 -4.148309 15.918719 -62.211972 -17.407224 13.232648 18.925775 -0.000001 0.000000 0.000003 
30.303160 95.281525 53.402550 16.999974 -15.554479 -12.299071 17.369834 1.882888 -33.219629 1.132816 -2.251638 5.618610 -0.748714 -4.000640 7.694286 8.313036 -7.834618 18.937985 -0.000001 0.000001 0.000001 5.416457 -3.267854 8.116251 4.375307 -2.452307 29.926023 -5.404972 27.934553 25.501985 0.000001 0.000001 0.000000 -2.349723 10.051931 23.162753 -6.753724 12.172996 44.361297 14.810254 9.298928 -72.798758 0.000003 0.000004 0.000004 -26.107923 -1.829877 5.730080 -17.195845 -5.343872 45.648524 -43.758047 -40.651360 -62.496791 0.000001 0.000001 -0.000001 -4.706034 8.839543 78.871773 -4.156614 16.671122 -64.233394 -18.535800 13.813234 20.568841 0.000002 0.000003 0.000002 
29.800779 94.960320 53.611557 17.339677 -16.634200 -11.686892 16.616213 1.777954 -33.413835 1.349479 -2.006358 5.409434 -1.003028 -4.093831 7.813691 8.955427 -7.657889 19.006641 -0.000002 -0.000001 0.000000 5.115330 -2.990112 8.018546 4.258263 -1.846823 30.906814 -4.907153 27.703155 23.851946 -0.000000 0.000004 -0.000000 -2.293936 9.757765 22.497791 -6.845519 12.064053 43.235241 15.871582 10.625006 -71.374917 0.000003 0.000002 -0.000001 -25.099248 -1.643162 6.281130 -16.884082 -5.434782 45.899080 -44.543045 -40.229855 -62.885060 -0.000002 -0.000003 -0.000001 -3.512604 9.077232 79.533619 -4.346232 17.494047 -66.064807 -18.063683 13.577873 22.036489 -0.000001 0.000000 0.000002 
29.185236 94.724663 53.837624 17.985787 -18.203622 -10.671887 15.362637 1.609859 -33.816290 2.183189 -1.360972 5.133861 -1.867025 -4.562720 7.783380 9.818854 -7.189525 19.260239 0.000002 0.000001 0.000000 4.623430 -2.612598 8.476459 3.620100 -1.768687 32.063708 -5.274834 26.356933 21.876232 0.000001 -0.000001 -0.000002 -2.476445 8.980444 22.078365 -7.077456 10.970799 42.035860 17.539921 13.439856 -69.911692 -0.000001 -0.000000 -0.000002 -24.295072 -1.402362 7.582735 -16.083340 -5.512759 45.122965 -45.167245 -39.025006 -62.212238 0.000002 -0.000003 -0.000000 -2.842442 9.194569 80.022332 -3.641569 18.115140 -67.821504 -19.539802 13.906374 24.100015 0.000003 0.000003 0.000003 
28.446865 94.565056 54.076935 18.239498 -20.007767 -9.761885 14.384305 1.457614 -34.116607 2.101912 -1.530870 5.181560 -1.838245 -4.670013 7.521598 11.037886 -6.880970 19.755627 -0.000000 0.000001 0.000002 4.215762 -2.429078 8.901031 3.263629 -1.389798 33.005277 -5.065716 25.926869 19.578787 -0.000000 -0.000000 0.000003 -2.614085 8.729253 20.750169 -7.562197 10.908732 41.279123 18.733011 15.821855 -68.043000 -0.000001 0.000004 0.000002 -22.518743 -1.100062 9.118135 -14.833346 -5.221785 43.983833 -44.878164 -37.815930 -60.518092 -0.000001 0.000003 -0.000001 -1.562333 9.512214 80.222286 -3.086880 18.338180 -69.067269 -20.370565 14.017902 27.600620 0.000000 0.000003 0.000002 
27.683342 94.439522 54.328087 18.430311 -21.244129 -8.942604 13.621027 1.386070 -34.307473 1.613761 -1.856029 5.138531 -1.490218 -4.104775 7.192546 12.164043 -6.967502 20.181044 -0.000002 -0.000000 0.000000 4.560239 -2.279287 8.952505 3.870038 -0.375658 32.896629 -3.487243 26.836032 18.891214 0.000002 0.000001 -0.000000 -2.001082 7.871628 19.559304 -7.245050 11.991703 40.818611 18.665841 15.006909 -66.761609 -0.000001 -0.000001 0.000004 -21.491255 -0.798019 9.848112 -14.536967 -5.052703 43.543463 -44.487443 -37.610894 -59.788327 0.000000 0.000004 -0.000000 -0.652696 9.633505 79.932939 -2.430091 17.679118 -69.662875 -20.042068 14.049498 30.696014 -0.000003 -0.000001 0.000001 
